<svg version="1.1" viewBox="0.0 0.0 208.3202099737533 207.86351706036746" fill="none" stroke="none" stroke-linecap="square" stroke-miterlimit="10" xmlns:xlink="http://www.w3.org/1999/xlink" xmlns="http://www.w3.org/2000/svg"><clipPath id="p.0"><path d="m0 0l208.3202 0l0 207.86351l-208.3202 0l0 -207.86351z" clip-rule="nonzero"/></clipPath><g clip-path="url(#p.0)"><path fill="#000000" fill-opacity="0.0" d="m0 0l208.3202 0l0 207.86351l-208.3202 0z" fill-rule="evenodd"/><path fill="#000000" fill-opacity="0.0" d="m64.60435 142.79614l76.661415 -75.27559" fill-rule="evenodd"/><path stroke="#000000" stroke-width="4.0" stroke-linejoin="round" stroke-linecap="butt" d="m64.604355 142.79614l59.536774 -58.460518" fill-rule="evenodd"/><path fill="#000000" stroke="#000000" stroke-width="4.0" stroke-linecap="butt" d="m128.77013 89.04984l8.323212 -17.43229l-17.581207 8.003853z" fill-rule="evenodd"/><path fill="#000000" fill-opacity="0.0" d="m60.70866 64.59318l88.377945 81.6063" fill-rule="evenodd"/><path stroke="#000000" stroke-width="4.0" stroke-linejoin="round" stroke-linecap="butt" d="m60.70866 64.59318l70.745316 65.324715" fill-rule="evenodd"/><path fill="#000000" stroke="#000000" stroke-width="4.0" stroke-linecap="butt" d="m126.97184 134.77194l17.81858 7.4605103l-8.854294 -17.168633z" fill-rule="evenodd"/><path fill="#000000" fill-opacity="0.0" d="m64.95099 167.98425l63.055115 0" fill-rule="evenodd"/><path stroke="#000000" stroke-width="4.0" stroke-linejoin="round" stroke-linecap="butt" d="m64.95099 167.98425l39.055122 0" fill-rule="evenodd"/><path fill="#000000" stroke="#000000" stroke-width="4.0" stroke-linecap="butt" d="m104.00611 174.59119l18.15239 -6.6069336l-18.15239 -6.6069336z" fill-rule="evenodd"/><path fill="#000000" fill-opacity="0.0" d="m64.95099 39.417324l63.055115 0" fill-rule="evenodd"/><path stroke="#000000" stroke-width="4.0" stroke-linejoin="round" stroke-linecap="butt" d="m64.95099 39.417324l39.055122 0" fill-rule="evenodd"/><path fill="#000000" stroke="#000000" stroke-width="4.0" stroke-linecap="butt" d="m104.00611 46.024254l18.15239 -6.60693l-18.15239 -6.60693z" fill-rule="evenodd"/><path fill="#356bce" d="m0 128.56693l78.83465 0l0 78.834656l-78.83465 0z" fill-rule="evenodd"/><path fill="#339729" d="m0 39.417324l0 0c0 -21.769587 17.647738 -39.417324 39.417324 -39.417324l0 0c10.454124 0 20.480072 4.1528845 27.872257 11.545067c7.3921814 7.3921814 11.545067 17.418133 11.545067 27.872257l0 0c0 21.769585 -17.64774 39.417324 -39.417324 39.417324l0 0c-21.769587 0 -39.417324 -17.64774 -39.417324 -39.417324z" fill-rule="evenodd"/><path fill="#c23c3c" d="m129.7207 168.21523l39.417313 -39.417328l39.417328 39.417328l-39.417328 39.417328z" fill-rule="evenodd"/><path fill="#9052b3" d="m129.7207 39.648293l0 0c0 -21.769585 17.647736 -39.41732 39.417313 -39.41732l0 0c10.454132 0 20.480087 4.1528845 27.872269 11.545066c7.3921814 7.3921833 11.545059 17.418133 11.545059 27.872255l0 0c0 21.769588 -17.647736 39.417328 -39.417328 39.417328l0 0c-21.769577 0 -39.417313 -17.64774 -39.417313 -39.417328z" fill-rule="evenodd"/><path fill="#000000" fill-opacity="0.0" d="m39.417324 78.83465l0 49.732277" fill-rule="evenodd"/><path stroke="#000000" stroke-width="4.0" stroke-linejoin="round" stroke-linecap="butt" d="m39.417324 78.83465l0 25.732285" fill-rule="evenodd"/><path fill="#000000" stroke="#000000" stroke-width="4.0" stroke-linecap="butt" d="m32.810394 104.56693l6.60693 18.15239l6.60693 -18.15239z" fill-rule="evenodd"/><path fill="#000000" fill-opacity="0.0" d="m169.13802 79.06562l0 49.732277" fill-rule="evenodd"/><path stroke="#000000" stroke-width="4.0" stroke-linejoin="round" stroke-linecap="butt" d="m169.13802 79.06562l0 25.732277" fill-rule="evenodd"/><path fill="#000000" stroke="#000000" stroke-width="4.0" stroke-linecap="butt" d="m162.5311 104.797905l6.6069183 18.15239l6.6069336 -18.15239z" fill-rule="evenodd"/></g></svg>